<?xml version="1.0" standalone="no"?>
<!DOCTYPE svg PUBLIC "-//W3C//DTD SVG 20010904//EN"
 "http://www.w3.org/TR/2001/REC-SVG-20010904/DTD/svg10.dtd">
<svg version="1.0" xmlns="http://www.w3.org/2000/svg"
 width="200.000000pt" height="200.000000pt" viewBox="0 0 200.000000 200.000000"
 preserveAspectRatio="xMidYMid meet">

<g transform="translate(0.000000,200.000000) scale(0.100000,-0.100000)"
fill="#000000" stroke="none">
<path d="M0 1990 c0 -7 340 -10 1000 -10 660 0 1000 3 1000 10 0 7 -340 10
-1000 10 -660 0 -1000 -3 -1000 -10z"/>
<path d="M726 1533 c-4 -9 -2 -21 4 -27 13 -13 13 -143 0 -151 -6 -3 -10 -48
-10 -100 0 -89 1 -96 26 -119 25 -22 26 -29 21 -79 -8 -82 0 -87 73 -44 l61
37 158 0 c152 0 158 1 179 23 12 13 22 28 22 35 0 6 9 16 19 21 40 22 56 157
26 215 -17 32 -20 147 -5 162 15 15 1 44 -20 44 -28 0 -30 -10 -21 -88 4 -40
5 -72 3 -72 -2 0 -13 11 -24 25 l-19 25 -204 0 -204 0 -20 -26 -21 -27 0 55
c0 30 5 59 12 66 8 8 8 15 -2 27 -17 20 -46 19 -54 -2z m492 -135 c18 -18 17
-292 -2 -307 -9 -8 -73 -11 -207 -9 l-194 3 -3 150 c-1 82 0 155 2 162 7 18
386 19 404 1z"/>
<path d="M870 1340 c-41 -41 -8 -120 49 -120 27 0 71 42 71 68 0 59 -79 93
-120 52z m88 -36 c4 -27 -26 -40 -46 -20 -21 20 -8 48 20 44 14 -2 24 -11 26
-24z m-63 -34 c3 -5 1 -10 -4 -10 -6 0 -11 5 -11 10 0 6 2 10 4 10 3 0 8 -4
11 -10z"/>
<path d="M1068 1343 c-35 -42 -28 -94 16 -114 55 -26 118 29 96 85 -17 45 -83
62 -112 29z m88 -28 c7 -18 -13 -45 -33 -45 -17 0 -27 24 -19 45 7 20 45 19
52 0z"/>
<path d="M950 1197 c0 -20 43 -57 66 -57 22 0 64 38 64 58 0 18 -18 14 -29 -7
-17 -31 -40 -33 -65 -6 -26 28 -36 31 -36 12z"/>
<path d="M0 15 c0 -13 118 -15 1000 -15 882 0 1000 2 1000 15 0 13 -118 15
-1000 15 -882 0 -1000 -2 -1000 -15z"/>
</g>
</svg>
